<?xml version="1.0" standalone="no"?>
<!DOCTYPE svg PUBLIC "-//W3C//DTD SVG 20010904//EN"
 "http://www.w3.org/TR/2001/REC-SVG-20010904/DTD/svg10.dtd">
<svg version="1.0" xmlns="http://www.w3.org/2000/svg"
 width="270.000000pt" height="270.000000pt" viewBox="0 0 270.000000 270.000000"
 preserveAspectRatio="xMidYMid meet">
<metadata>
Created by potrace 1.14, written by Peter Selinger 2001-2017
</metadata>
<g transform="translate(0.000000,270.000000) scale(0.100000,-0.100000)"
fill="#000000" stroke="none">
<path d="M574 2671 c-46 -28 -54 -65 -54 -238 0 -243 5 -249 220 -255 156 -5
198 -17 246 -70 50 -54 54 -76 54 -272 l0 -184 -157 -4 c-155 -3 -159 -4 -213
-34 -69 -39 -124 -114 -140 -190 -8 -36 -10 -161 -8 -367 3 -269 6 -317 20
-350 28 -62 73 -111 130 -143 l53 -29 390 -5 c382 -5 391 -5 432 -28 24 -12
55 -41 70 -64 27 -40 28 -48 33 -197 8 -235 3 -231 261 -231 264 0 262 -2 257
273 l-3 177 -28 27 c-27 28 -30 28 -180 34 -137 5 -158 8 -197 30 -24 13 -58
43 -75 67 l-30 44 -3 194 -3 194 148 0 c142 0 150 1 208 29 64 30 101 66 138
135 21 40 22 49 22 396 l0 355 -30 54 c-16 29 -47 68 -68 87 -73 62 -91 64
-486 64 -218 0 -371 4 -394 11 -21 5 -53 24 -73 41 -62 54 -68 76 -74 251 l-5
159 -33 29 -32 29 -183 0 c-161 0 -186 -2 -213 -19z"/>
</g>
</svg>
